HIERARCHY
ROOT Hips
{
  OFFSET 57.8838 95.319 338.509
  CHANNELS 6 Xposition Yposition Zposition Zrotation Xrotation Yrotation
  JOINT LeftUpLeg
  {
    OFFSET 8.64259 1.95398 -2.38835
    CHANNELS 3 Zrotation Xrotation Yrotation
    JOINT LeftLeg
    {
      OFFSET 43.7702 0 0
      CHANNELS 3 Zrotation Xrotation Yrotation
      JOINT LeftFoot
      {
        OFFSET 40.6238 0 0
        CHANNELS 3 Zrotation Xrotation Yrotation
        JOINT LeftToeBase
        {
          OFFSET 12.7242 0 0
          CHANNELS 3 Zrotation Xrotation Yrotation
          End Site
          {
            OFFSET 0 0 0
          }
        }
      }
    }
  }
  JOINT RightUpLeg
  {
    OFFSET -8.2249 1.95398 -2.59336
    CHANNELS 3 Zrotation Xrotation Yrotation
    JOINT RightLeg
    {
      OFFSET 43.5653 0 0
      CHANNELS 3 Zrotation Xrotation Yrotation
      JOINT RightFoot
      {
        OFFSET 40.6238 0 0
        CHANNELS 3 Zrotation Xrotation Yrotation
        JOINT RightToeBase
        {
          OFFSET 12.7242 0 0
          CHANNELS 3 Zrotation Xrotation Yrotation
          End Site
          {
            OFFSET 0 0 0
          }
        }
      }
    }
  }
  JOINT Spine
  {
    OFFSET 0.165834 0.87714 6.61349
    CHANNELS 3 Zrotation Xrotation Yrotation
    JOINT Spine1
    {
      OFFSET 7.38963 1.71661e-005 0
      CHANNELS 3 Zrotation Xrotation Yrotation
      JOINT Spine2
      {
        OFFSET 11.9445 1.14441e-005 0
        CHANNELS 3 Zrotation Xrotation Yrotation
        JOINT Spine3
        {
          OFFSET 14.7254 4.19617e-005 0
          CHANNELS 3 Zrotation Xrotation Yrotation
          JOINT Spine4
          {
            OFFSET 10.9679 0 0
            CHANNELS 3 Zrotation Xrotation Yrotation
            JOINT RightShoulder
            {
              OFFSET 2.46616 -1.6653 3.69651
              CHANNELS 3 Zrotation Xrotation Yrotation
              JOINT RightArm
              {
                OFFSET 13.0012 0 0
                CHANNELS 3 Zrotation Xrotation Yrotation
                JOINT RightForeArm
                {
                  OFFSET 28.7848 1.62311e-005 0
                  CHANNELS 3 Zrotation Xrotation Yrotation
                  JOINT RightHand
                  {
                    OFFSET 26.5688 1.62095e-005 0
                    CHANNELS 3 Zrotation Xrotation Yrotation
                    End Site
                    {
                      OFFSET 0 0 0
                    }
                  }
                }
              }
            }
            JOINT LeftShoulder
            {
              OFFSET 2.38034 -1.29275 -3.7523
              CHANNELS 3 Zrotation Xrotation Yrotation
              JOINT LeftArm
              {
                OFFSET 16.3182 6.07031e-005 0
                CHANNELS 3 Zrotation Xrotation Yrotation
                JOINT LeftForeArm
                {
                  OFFSET 27.0901 0 0
                  CHANNELS 3 Zrotation Xrotation Yrotation
                  JOINT LeftHand
                  {
                    OFFSET 24.5451 1.51738e-005 0
                    CHANNELS 3 Zrotation Xrotation Yrotation
                    End Site
                    {
                      OFFSET 0 0 0
                    }
                  }
                }
              }
            }
            JOINT Neck
            {
              OFFSET 5.0226 -0.0266342 0
              CHANNELS 3 Zrotation Xrotation Yrotation
              JOINT Head
              {
                OFFSET 6.69364 2.86102e-005 0
                CHANNELS 3 Zrotation Xrotation Yrotation
                End Site
                {
                  OFFSET 0 0 0
                }
              }
            }
          }
        }
      }
    }
  }
}
MOTION
Frames:	7
Frame Time:	0.0416667
-68.4863 95.2795 40.5122 97.2276 -0.186294 92.1329 178.058 17.6709 87.9041 -6.38916 2.80249 -0.115589 57.8589 -0.79085 4.60446 45.4309 8.04135 11.596 173.683 -4.88668 96.2021 -25.5199 -5.63671 -0.577861 72.899 -9.00719 9.47252 32.2337 -4.50254 2.1445 0.273242 7.97013 -90.4457 10.9342 0.337825 -0.918717 -0.737059 0.29711 -0.932701 -23.2705 0.598293 -0.774731 -3.25787 0.598321 -0.774723 98.1602 -47.0567 -88.4633 28.3974 -15.6866 -15.5945 -9.41511 -11.2714 -37.1831 -17.8269 -0.889478 0.600298 -79.6489 -54.2469 94.4877 -31.7429 -32.0331 -1.05924 4.80295 80.8819 0.0394378 -8.08294 0.289515 -10.2583 -0.226418 3.64854 -6.79824 -28.7834 0.46652 17.2399 
-59.8525 94.3304 40.4581 96.9981 -3.09943 93.0758 179.18 17.6802 89.596 -6.77333 1.51457 -0.254692 56.0157 -4.29352 5.52834 41.4009 5.91237 11.7654 173.676 -8.65094 96.0096 -27.7963 -7.67926 -1.20605 71.8347 -8.93757 10.7843 37.383 -11.1271 1.65052 0.538492 7.80547 -90.3359 11.2643 0.915317 -0.758869 -0.406548 0.881059 -0.798432 -22.9434 1.1011 -0.448669 -2.93074 1.10109 -0.448681 97.6648 -47.6175 -89.2087 28.9422 -16.7415 -15.7331 -10.0918 -11.529 -37.207 -16.2826 -0.723403 -0.028754 -78.9719 -55.2124 95.4879 -29.3034 -31.6831 1.09456 3.69587 77.019 0.0986612 -9.82144 0.375931 -11.049 -1.48136 4.25094 -6.22605 -28.2609 0.991894 17.3304 
-50.2969 94.2157 39.9956 97.504 -2.51596 91.6508 -179.953 16.4985 87.5191 -15.278 6.66324 -0.892757 54.4387 -6.21185 10.2135 30.7865 0.739284 3.55709 170.835 -9.04685 90.4599 -36.2192 -6.70212 -1.25592 65.6363 3.46997 22.8309 36.4138 -10.5177 -2.4341 0.499802 7.61464 -89.8944 11.6475 1.04367 0.0996547 -0.0229717 1.04703 0.0536222 -22.5614 0.965441 0.408742 -2.54871 0.965468 0.408741 97.6702 -48.5922 -89.1091 31.9285 -17.1113 -12.2498 -9.9463 -14.1834 -33.3645 -13.4071 -0.513417 -0.770532 -78.4714 -54.7481 96.1973 -28.5296 -30.9029 -0.495288 3.02714 70.5422 -0.378017 -7.07734 0.139639 -9.84657 -2.45393 4.52708 -6.57443 -29.2846 1.07185 17.4186 
-42.3956 93.6323 39.071 99.2415 -1.50471 90.9028 -178.762 15.4744 85.232 -26.883 8.34953 -1.07411 60.182 -1.49782 13.495 27.2166 -0.43655 -2.61389 169.554 -1.25604 86.2329 -55.1679 -16.2602 -0.962221 53.2996 13.6354 18.0778 23.6792 7.0933 -1.73551 0.496984 7.66171 -89.6624 11.5477 1.14674 0.554862 -0.12283 1.17002 0.503843 -22.6599 0.926973 0.873867 -2.64725 0.926963 0.873857 97.2262 -48.2482 -89.8455 34.9888 -15.0484 -9.24327 -7.26137 -17.6945 -26.014 -10.9191 -0.395315 -1.01039 -78.6335 -54.6423 95.962 -29.5787 -27.5602 -7.09084 4.05581 66.1613 -3.36672 -4.56363 0.00182161 -9.19504 -2.76081 4.81132 -6.2847 -29.7453 1.06234 18.1042 
-35.0747 93.9517 38.4037 102.151 1.56195 91.1555 -178.223 9.1921 84.2578 -30.5698 10.1983 -0.238953 63.5134 2.39974 13.7521 31.4474 1.19526 -3.29704 168.893 7.21949 86.3355 -70.4079 -16.0081 -1.15475 54.4678 11.4797 12.5999 24.856 5.69655 -3.27669 0.184157 7.97806 -89.626 10.9162 0.539754 0.692876 -0.754809 0.569744 0.668443 -23.2888 0.306538 0.823046 -3.27612 0.30656 0.823049 97.0105 -48.2592 -90.1865 35.0672 -13.2678 -10.1806 -2.28375 -20.459 -16.4454 -9.84632 -0.417069 -0.272637 -79.0126 -54.0014 95.4018 -31.8601 -23.1121 -16.6076 5.89789 63.4245 -6.83056 -3.5844 -0.0373417 -9.60478 -4.80742 6.10017 -4.17588 -28.0721 2.4075 17.8084 
-27.9752 94.687 37.7265 103.05 7.19228 90.7217 -178.029 2.85044 84.634 -30.2104 15.3639 0.995512 64.8753 5.13799 14.3289 35.5554 2.72543 -2.4947 167.884 13.8048 88.0576 -68.9186 -13.289 -0.254857 59.7679 4.41425 11.1633 29.6958 -1.15743 -3.70601 -0.193548 7.97337 -89.7262 10.9272 -0.258485 0.569377 -0.743864 -0.233186 0.5802 -23.2785 -0.417673 0.465372 -3.26587 -0.417658 0.46537 97.2507 -48.277 -89.8038 35.9082 -9.7219 -7.43261 -0.339368 -21.1715 -12.8928 -9.902 -0.469483 0.364857 -79.0236 -52.3545 95.3464 -32.6718 -17.6017 -21.2246 12.9558 56.0529 -19.3259 -1.41062 -0.138269 -10.2855 -6.56246 6.32919 -4.02233 -28.1186 2.5202 18.0023 
-21.2578 95.0072 37.3508 102.553 12.0855 89.3016 -178.201 -1.87313 84.6519 -28.2507 18.7969 1.76206 65.0761 7.6036 14.3076 39.9178 4.38345 -2.40869 169.605 17.2808 87.7836 -53.0736 -9.04231 0.361925 64.1426 0.0435496 13.5959 35.553 -9.23344 -1.86117 -0.444883 7.83013 -89.6231 11.2157 -0.710064 0.819954 -0.45535 -0.673275 0.850402 -22.9909 -0.923677 0.568642 -2.97826 -0.923651 0.568646 97.5218 -48.6149 -89.3415 36.1454 -7.04147 -4.40177 0.435423 -19.8388 -11.9719 -10.1783 -0.596859 1.70064 -78.9439 -51.4454 95.4426 -30.3852 -12.1405 -21.0005 19.6949 45.9826 -34.6718 -1.99117 -0.11486 -11.0344 -6.50208 6.76466 -3.76933 -27.6739 2.97615 18.1827 
